<?xml version="1.0" encoding="UTF-8" standalone="no"?>
<!-- Generator: Adobe Illustrator 17.0.0, SVG Export Plug-In . SVG Version: 6.00 Build 0)  -->

<svg
   xmlns:dc="http://purl.org/dc/elements/1.1/"
   xmlns:cc="http://creativecommons.org/ns#"
   xmlns:rdf="http://www.w3.org/1999/02/22-rdf-syntax-ns#"
   xmlns:svg="http://www.w3.org/2000/svg"
   xmlns="http://www.w3.org/2000/svg"
   xmlns:xlink="http://www.w3.org/1999/xlink"
   xmlns:sodipodi="http://sodipodi.sourceforge.net/DTD/sodipodi-0.dtd"
   xmlns:inkscape="http://www.inkscape.org/namespaces/inkscape"
   version="1.1"
   id="Layer_1"
   sodipodi:docname="alphaplot-banner.svg"
   inkscape:version="0.91 r13725"
   x="0px"
   y="0px"
   width="650px"
   height="520px"
   viewBox="0 0 640 420"
   enable-background="new 0 0 640 420"
   xml:space="preserve"><metadata
     id="metadata931"><rdf:RDF><cc:Work
         rdf:about=""><dc:format>image/svg+xml</dc:format><dc:type
           rdf:resource="http://purl.org/dc/dcmitype/StillImage" /></cc:Work></rdf:RDF></metadata><defs
     id="defs929" /><sodipodi:namedview
     inkscape:cy="273.33726"
     inkscape:cx="303.93865"
     inkscape:zoom="0.68"
     showgrid="false"
     guidetolerance="10"
     gridtolerance="10"
     objecttolerance="10"
     pagecolor="#ffffff"
     bordercolor="#666666"
     borderopacity="1"
     id="namedview1832"
     inkscape:current-layer="Layer_1"
     inkscape:window-maximized="1"
     inkscape:window-y="0"
     inkscape:window-x="0"
     inkscape:window-height="751"
     inkscape:pageshadow="2"
     inkscape:pageopacity="0"
     inkscape:window-width="1280" /><g
     id="g50"
     transform="matrix(1.2480044,0,0,1.2474862,132.01324,177.78195)"><image
       sodipodi:absref="/home/arun/website/images/../.././../../run/media/arun/F50B-E887/Clementine/94C35B6.png"
       xlink:href="../.././../../run/media/arun/F50B-E887/Clementine/94C35B6.png"
       style="overflow:visible;opacity:0.5"
       transform="matrix(0.2374,0,0,0.237,17.7188,118.4344)"
       id="image52"
       height="321"
       width="363"
       enable-background="new    "
       overflow="visible" /><g
       id="g54"><path
         id="path56"
         d="m 79.981,128.952 c 0,0 -20.667,43.543 -39.105,43.543 -18.438,0 -18.302,-19.593 -8.916,-34.586 9.016,-14.4 25.631,-16.215 31.913,0.114 6.282,16.329 4.458,31.977 17.83,29.369 0,0 -13.272,13.607 -19.856,-6.236 -6.584,-19.843 -5.716,-30.614 -14.994,-27.667 -7.497,2.382 -19.058,32.155 -8.307,32.997 10.131,0.793 29.076,-32.657 30.596,-37.646 l 10.839,0.112 z"
         inkscape:connector-curvature="0"
         style="fill:#ff5033" /></g></g><g
     id="g5605"
     transform="matrix(8.1021558,0,0,7.9943454,-911.46599,-1549.0326)"><rect
       id="rect3012"
       x="124.34285"
       y="219.33344"
       width="53.051998"
       height="2.1372325"
       style="fill:#333333;fill-opacity:1" /><path
       id="path4725"
       sodipodi:nodetypes="cczzzzzsszzzzc"
       inkscape:connector-curvature="0"
       d="m 129.07387,220.33525 c 1.39,-0.08 2.815,-0.164 3.659,-0.073 1.317,0.328 2.75,1.008 3.939,1.56 1.189,0.552 1.715,-5.069 3.29,-5.001 1.575,0.068 2.598,11.991 4.011,11.947 1.413,-0.044 1.582,-22.121 3.29,-22.256 1.708,-0.135 1.16,31.808 3.502,31.795 2.342,-0.012 0.725,-36.934 3.63,-36.885 2.924,0.049 0.271,33.647 3.602,33.669 1.409,0.01 1.815,-23.561 3.939,-23.538 2.124,0.023 2.217,13.092 3.53,13.13 1.314,0.038 1.82,-6.676 2.761,-6.679 0.941,-0.002 3.389,2.49 4.011,2.478 0.622,-0.012 2.225,-0.127 2.978,-0.103"
       style="fill:none;stroke:#ff3600;stroke-width:2" /><path
       id="path3079"
       sodipodi:nodetypes="czc"
       inkscape:connector-curvature="0"
       d="m 129.86687,220.33525 c 14.368,0 16.872,-19.179 23.213,-19.232 6.341,-0.053 8.82,19.232 23.189,19.232"
       style="fill:none;stroke:#333333;stroke-width:2;stroke-opacity:1" /><path
       id="path3079-0"
       sodipodi:nodetypes="czc"
       inkscape:connector-curvature="0"
       d="m 129.86687,220.33525 c 14.368,0 16.872,18.779 23.213,18.831 6.341,0.053 8.82,-18.831 23.189,-18.831"
       style="fill:none;stroke:#333333;stroke-width:2;stroke-opacity:1" /><rect
       id="rect3014"
       x="128.76387"
       y="196.29524"
       width="2.160053"
       height="48.080002"
       style="fill:#333333;fill-opacity:1" /></g><g
     id="g1798"
     transform="matrix(1.2480044,0,0,1.2474862,-312.25132,-88.813311)"><path
       id="path1800"
       d="m 386.18898,117.86224 c -0.0861,-0.5817 0.0431,-2.00236 0.38745,-4.09905 l 0.88107,-5.0995 c 0.53812,-3.16862 1.44071,-4.63501 2.51551,-5.61403 1.03175,-0.97903 2.15104,-1.39779 3.56878,-1.39779 2.494,0 4.08539,1.97949 4.08539,4.58784 0,4.07617 -2.66619,7.26766 -5.50457,7.26766 -1.20395,0 -2.27874,-0.51311 -2.70924,-1.37493 l -0.0645,0 -0.27981,1.63075 c -0.23677,1.37493 -0.51516,3.19005 -0.51516,4.09905 l -2.36484,0 0,0 z m 3.80555,-9.34147 c -0.0645,0.25726 -0.0861,0.56025 -0.0861,0.88612 0,0.79179 0.68736,2.00235 2.04196,2.00235 1.61292,0 3.09669,-2.25961 3.09669,-4.98373 0,-1.37493 -0.64431,-2.56262 -1.95587,-2.56262 -1.35462,0 -2.49399,1.30346 -2.98907,4.00614 l -0.10762,0.65174 z"
       inkscape:connector-curvature="0"
       style="fill:#333333;fill-opacity:1" /><path
       id="path1802"
       d="m 403.19632,105.54081 0,-1.81655 10.9015,0 0,1.81655 -10.9015,0 z m 0,4.72791 0,-1.81656 10.9015,0 0,1.81656 -10.9015,0 z"
       inkscape:connector-curvature="0"
       style="fill:#333333;fill-opacity:1" /><path
       id="path1804"
       d="m 422.63306,95.780573 0,23.292227 -1.76358,0 0,-23.292227 1.76358,0 z"
       inkscape:connector-curvature="0"
       style="fill:#333333;fill-opacity:1" /><path
       id="path1806"
       d="m 437.21242,101.9077 c 0.17219,0.51167 0.2999,1.23485 0.2999,2.21245 0,5.31104 -2.47246,9.20141 -6.47173,9.38722 l -0.75193,4.35487 -2.27874,0 0.75193,-4.35487 c -2.08503,-0.18724 -3.93471,-1.46783 -3.93471,-4.33201 0,-0.51167 0.0645,-1.21199 0.1722,-1.88659 l 0.43049,-2.56263 c 0.21525,-1.11765 0.3444,-2.14242 0.32287,-2.81844 l 2.25722,0 c 0.15067,0.30299 0.15067,1.07192 -0.0431,2.11955 l -0.53812,3.19005 c -0.10762,0.67603 -0.1722,1.23343 -0.1722,1.88659 0.0215,1.63075 0.81651,2.35252 1.84969,2.44542 l 2.17255,-12.600129 2.25721,0 -2.17111,12.600129 c 1.8052,-0.0243 3.74099,-2.56262 3.74099,-7.64069 0,-0.97902 -0.0861,-1.69936 -0.1722,-2.00236 l 2.27874,0 0,0.002 z"
       inkscape:connector-curvature="0"
       style="fill:#333333;fill-opacity:1" /><path
       id="path1808"
       d="m 441.7699,95.780573 0,23.292227 -1.76359,0 0,-23.292227 1.76359,0 z"
       inkscape:connector-curvature="0"
       style="fill:#333333;fill-opacity:1" /><path
       id="path1810"
       d="m 443.94102,103.79429 0.21525,-1.14196 1.59138,-1.35063 c 1.89131,-1.560725 3.18135,-2.724121 3.18135,-3.911812 0,-0.56026 -0.32287,-1.071927 -1.18242,-1.071927 -0.68736,0 -1.39767,0.348733 -1.87122,0.676032 l -0.36591,-1.397796 c 0.75193,-0.581694 1.78511,-1.001893 2.90295,-1.001893 1.54834,0 2.68771,0.908993 2.68771,2.422554 0,1.839423 -1.65596,3.190052 -3.31193,4.496372 l -0.66582,0.55883 0,0.0457 3.26744,0 -0.29991,1.67792 -6.14887,0 0,-0.002 z"
       inkscape:connector-curvature="0"
       style="fill:#333333;fill-opacity:1" /><path
       id="path1812"
       d="m 401.72403,133.49949 0,-1.81656 10.90151,0 0,1.81656 -10.90151,0 z m 0,4.72934 0,-1.81656 10.90151,0 0,1.81656 -10.90151,0 z"
       inkscape:connector-curvature="0"
       style="fill:#333333;fill-opacity:1" /><path
       id="path1814"
       d="m 430.81529,129.86637 c 0.1722,0.51167 0.29991,1.23487 0.29991,2.21246 0,5.31103 -2.47246,9.20141 -6.47174,9.38721 l -0.75193,4.35488 -2.27873,0 0.75192,-4.35488 c -2.08502,-0.18723 -3.9347,-1.46782 -3.9347,-4.33201 0,-0.51167 0.0646,-1.21199 0.17219,-1.88659 l 0.4305,-2.56261 c 0.21524,-1.11767 0.34439,-2.14242 0.32286,-2.81846 l 2.25723,0 c 0.15067,0.30301 0.15067,1.07193 -0.0431,2.11956 l -0.53812,3.19005 c -0.10762,0.67603 -0.17219,1.23343 -0.17219,1.88659 0.0215,1.63076 0.8165,2.35252 1.84969,2.44542 l 2.17255,-12.60012 2.25722,0 -2.17112,12.60012 c 1.80519,-0.0243 3.74097,-2.56261 3.74097,-7.64068 0,-0.97903 -0.0861,-1.69937 -0.17219,-2.00236 l 2.27874,0 0,0.002 z"
       inkscape:connector-curvature="0"
       style="fill:#333333;fill-opacity:1" /><path
       id="path1816"
       d="m 440.576,126.25756 -2.51551,2.93422 0.0215,0.0472 3.41811,-0.62887 -0.36592,2.02665 -3.20287,-0.53596 0,0.0457 1.91283,2.84131 -1.74206,1.04763 -0.94566,-3.44731 -0.0431,0 -1.63444,3.44731 -1.48377,-1.04763 2.49399,-2.86418 0,-0.0472 -3.35497,0.56025 0.34439,-2.02665 3.09668,0.62886 0,-0.0701 -1.84968,-2.91134 1.76358,-1.0019 0.92412,3.42445 0.0431,0 1.56987,-3.42445 1.54978,1.0019 z"
       inkscape:connector-curvature="0"
       style="fill:#333333;fill-opacity:1" /><path
       id="path1818"
       d="m 454.38046,129.86637 c 0.1722,0.51167 0.29991,1.23487 0.29991,2.21246 0,5.31103 -2.47246,9.20141 -6.47174,9.38721 l -0.75192,4.35488 -2.27874,0 0.75192,-4.35488 c -2.08502,-0.18723 -3.9347,-1.46782 -3.9347,-4.33201 0,-0.51167 0.0645,-1.21199 0.1722,-1.88659 l 0.4305,-2.56261 c 0.21524,-1.11767 0.34439,-2.14242 0.32286,-2.81846 l 2.25722,0 c 0.15067,0.30301 0.15067,1.07193 -0.0431,2.11956 l -0.53812,3.19005 c -0.10762,0.67603 -0.1722,1.23343 -0.1722,1.88659 0.0215,1.63076 0.81651,2.35252 1.84969,2.44542 l 2.17255,-12.60012 2.25722,0 -2.17112,12.60012 c 1.8052,-0.0243 3.74098,-2.56261 3.74098,-7.64068 0,-0.97903 -0.0861,-1.69937 -0.1722,-2.00236 l 2.27874,0 0,0.002 z"
       inkscape:connector-curvature="0"
       style="fill:#333333;fill-opacity:1" /></g><g
     id="g1820" /><g
     id="g1822" /><g
     id="g1824" /><g
     id="g1826" /><g
     id="g1828" /><g
     id="g1830" /></svg>